<svg width="20" height="20" viewBox="0 0 20 20" fill="none" xmlns="http://www.w3.org/2000/svg">
<path d="M13.0892 6.00582C12.7638 6.33126 12.2361 6.33126 11.9107 6.00582L10.8333 4.92841V12.9166C10.8333 13.3768 10.4602 13.7499 9.99996 13.7499C9.53972 13.7499 9.16663 13.3768 9.16663 12.9166V4.92841L8.08922 6.00582C7.76378 6.33126 7.23614 6.33126 6.9107 6.00582C6.58527 5.68039 6.58527 5.15275 6.9107 4.82731L9.70533 2.03268C9.86805 1.86997 10.1319 1.86996 10.2946 2.03268L13.0892 4.82731C13.4147 5.15275 13.4147 5.68039 13.0892 6.00582Z" fill="#5C59E8"/>
<path d="M15 7.08323C16.8409 7.08323 18.3333 8.57562 18.3333 10.4166V14.5832C18.3333 16.4242 16.8409 17.9166 15 17.9166H4.99996C3.15901 17.9166 1.66663 16.4242 1.66663 14.5832V10.4166C1.66663 8.57562 3.15901 7.08323 4.99996 7.08323H6.66663C7.12686 7.08323 7.49996 7.45633 7.49996 7.91657C7.49996 8.37681 7.12686 8.7499 6.66663 8.7499H4.99996C4.07948 8.7499 3.33329 9.49609 3.33329 10.4166V14.5832C3.33329 15.5037 4.07949 16.2499 4.99996 16.2499H15C15.9204 16.2499 16.6666 15.5037 16.6666 14.5832V10.4166C16.6666 9.49609 15.9204 8.7499 15 8.7499H13.3333C12.8731 8.7499 12.5 8.37681 12.5 7.91657C12.5 7.45633 12.8731 7.08323 13.3333 7.08323H15Z" fill="#5C59E8"/>
</svg>
