<svg width="20" height="20" viewBox="0 0 20 20" fill="none" xmlns="http://www.w3.org/2000/svg">
<path fill-rule="evenodd" clip-rule="evenodd" d="M9.99996 4.16669C15.1083 4.16669 17.5256 7.59166 18.3765 9.19284C18.6475 9.70268 18.6475 10.2974 18.3765 10.8072C17.5256 12.4084 15.1083 15.8334 9.99996 15.8334C4.89164 15.8334 2.47436 12.4084 1.62339 10.8072C1.35242 10.2974 1.35242 9.70268 1.62339 9.19284C2.47436 7.59166 4.89164 4.16669 9.99996 4.16669ZM5.69692 7.06477C4.31336 7.98147 3.50548 9.20287 3.09512 9.97501C3.09054 9.98363 3.08865 9.98961 3.08783 9.99289C3.08699 9.99623 3.08683 10 3.08683 10C3.08683 10 3.08699 10.0038 3.08783 10.0071C3.08865 10.0104 3.09054 10.0164 3.09512 10.025C3.50548 10.7972 4.31336 12.0186 5.69692 12.9353C5.1257 12.0995 4.79163 11.0888 4.79163 10C4.79163 8.91127 5.1257 7.90055 5.69692 7.06477ZM14.303 12.9353C15.6866 12.0186 16.4944 10.7972 16.9048 10.025C16.9094 10.0164 16.9113 10.0104 16.9121 10.0071C16.9126 10.005 16.913 10.0019 16.913 10.0019L16.9131 10L16.9128 9.99635L16.9121 9.99289C16.9113 9.98961 16.9094 9.98363 16.9048 9.975C16.4944 9.20288 15.6866 7.98148 14.303 7.06478C14.8742 7.90056 15.2083 8.91128 15.2083 10C15.2083 11.0888 14.8742 12.0995 14.303 12.9353ZM6.4583 10C6.4583 8.04401 8.04396 6.45835 9.99997 6.45835C11.956 6.45835 13.5416 8.04401 13.5416 10C13.5416 11.956 11.956 13.5417 9.99997 13.5417C8.04396 13.5417 6.4583 11.956 6.4583 10Z" fill="#667085"/>
</svg>
