<svg width="20" height="20" viewBox="0 0 20 20" fill="none" xmlns="http://www.w3.org/2000/svg">
<path fill-rule="evenodd" clip-rule="evenodd" d="M17.3047 6.8201C18.281 5.84379 18.281 4.26087 17.3047 3.28456L16.7155 2.69531C15.7391 1.719 14.1562 1.719 13.1799 2.69531L3.69097 12.1843C3.34624 12.529 3.10982 12.967 3.01082 13.4444L2.34111 16.6737C2.21932 17.2609 2.73906 17.7807 3.32629 17.6589L6.55565 16.9892C7.03302 16.8902 7.47103 16.6538 7.81577 16.309L17.3047 6.8201ZM16.1262 4.46307L15.5369 3.87382C15.2115 3.54838 14.6839 3.54838 14.3584 3.87382L13.4745 4.75773L15.2423 6.5255L16.1262 5.64158C16.4516 5.31615 16.4516 4.78851 16.1262 4.46307ZM14.0638 7.70401L12.296 5.93624L4.86948 13.3628C4.75457 13.4777 4.67577 13.6237 4.64277 13.7828L4.23082 15.7692L6.21721 15.3572C6.37634 15.3242 6.52234 15.2454 6.63726 15.1305L14.0638 7.70401Z" fill="#667085"/>
</svg>
