<svg width="80" height="81" viewBox="0 0 80 81" fill="none" xmlns="http://www.w3.org/2000/svg">
<path opacity="0.3" d="M80 40.5C80 62.5914 62.0914 80.5 40 80.5C17.9086 80.5 0 62.5914 0 40.5C0 18.4086 17.9086 0.5 40 0.5C62.0914 0.5 80 18.4086 80 40.5ZM10.9071 40.5C10.9071 56.5675 23.9325 69.5929 40 69.5929C56.0675 69.5929 69.0929 56.5675 69.0929 40.5C69.0929 24.4325 56.0675 11.4071 40 11.4071C23.9325 11.4071 10.9071 24.4325 10.9071 40.5Z" fill="#7553C8"/>
<circle cx="40" cy="40.5" r="29" fill="#7553C8"/>
<path d="M28.0992 51.0992L28.099 51.0991C27.2262 50.4483 26.4256 49.4206 25.8428 48.259C25.26 47.0973 24.9167 45.8451 24.9167 44.7666V32.3666C24.9167 30.0074 26.6716 27.4618 28.8912 26.6351L28.8922 26.6348L37.2085 23.5183C37.2085 23.5182 37.2086 23.5182 37.2087 23.5182C37.9622 23.2366 38.9617 23.0874 39.9834 23.0874C41.0052 23.0874 42.0046 23.2366 42.7581 23.5182C42.7582 23.5182 42.7583 23.5182 42.7584 23.5183L51.0746 26.6348L51.0756 26.6351C53.2953 27.4618 55.0501 30.0074 55.0501 32.3666V44.7499C55.0501 45.8371 54.7067 47.0892 54.1242 48.2483C53.5417 49.4073 52.7411 50.4313 51.8679 51.0824L51.8676 51.0826L44.701 56.4326L44.7009 56.4325L44.6948 56.4373C43.4121 57.4264 41.7241 57.9332 40.0001 57.9332C38.2775 57.9332 36.5853 57.427 35.265 56.4486C35.2648 56.4484 35.2646 56.4483 35.2645 56.4482L28.0992 51.0992ZM37.742 24.9315L37.7413 24.9317L29.4246 28.0484L29.4239 28.0486C28.5963 28.3602 27.8551 29.0225 27.3242 29.7906C26.7931 30.559 26.4334 31.4898 26.4334 32.3832V44.7666C26.4334 45.661 26.744 46.6892 27.201 47.601C27.6579 48.5126 28.2934 49.3722 29.0009 49.9005L29.001 49.9006L36.1673 55.2503C37.2293 56.0445 38.6283 56.4249 40.0022 56.4249C41.3762 56.4249 42.7784 56.0445 43.8479 55.2516L43.8492 55.2506L51.0159 49.9006L51.0168 49.8999C51.7315 49.3638 52.367 48.505 52.8223 47.5943C53.2776 46.6837 53.5834 45.66 53.5834 44.7666V32.3666C53.5834 31.4804 53.223 30.5538 52.6926 29.7864C52.1621 29.0189 51.4224 28.354 50.5977 28.0338L50.5977 28.0338L50.5922 28.0317L42.2755 24.915L42.2756 24.9149L42.2665 24.9117C41.6283 24.6865 40.8003 24.5831 40.0008 24.5853C39.2022 24.5875 38.3753 24.6951 37.742 24.9315Z" fill="#FAFAFA" stroke="#FAFAFA"/>
<path d="M37.413 41.5536L37.7666 41.9071L38.1201 41.5536L44.4035 35.2703C44.6915 34.9822 45.1749 34.9822 45.463 35.2703C45.7511 35.5583 45.7511 36.0417 45.463 36.3298L38.2963 43.4965C38.1451 43.6478 37.9578 43.7167 37.7666 43.7167C37.5754 43.7167 37.3881 43.6478 37.2368 43.4965L34.5535 40.8131C34.2654 40.5251 34.2654 40.0417 34.5535 39.7536C34.8415 39.4655 35.3249 39.4655 35.613 39.7536L37.413 41.5536Z" fill="#FAFAFA" stroke="#FAFAFA"/>
</svg>
