<svg width="81" height="81" viewBox="0 0 81 81" fill="none" xmlns="http://www.w3.org/2000/svg">
<path opacity="0.3" d="M80.5 40.5C80.5 62.5914 62.5914 80.5 40.5 80.5C18.4086 80.5 0.5 62.5914 0.5 40.5C0.5 18.4086 18.4086 0.5 40.5 0.5C62.5914 0.5 80.5 18.4086 80.5 40.5ZM11.4071 40.5C11.4071 56.5675 24.4325 69.5929 40.5 69.5929C56.5675 69.5929 69.5929 56.5675 69.5929 40.5C69.5929 24.4325 56.5675 11.4071 40.5 11.4071C24.4325 11.4071 11.4071 24.4325 11.4071 40.5Z" fill="#7553C8"/>
<circle cx="40.5" cy="40.5" r="29" fill="#7553C8"/>
<g clip-path="url(#clip0_4943_663)">
<path d="M33.8334 45.5001C33.8334 43.6591 32.341 42.1667 30.5001 42.1667C28.6591 42.1667 27.1667 43.6591 27.1667 45.5001V48.8334C27.1667 50.6744 28.6591 52.1667 30.5001 52.1667C32.341 52.1667 33.8334 50.6744 33.8334 48.8334V45.5001Z" stroke="white" stroke-width="2" stroke-linecap="round" stroke-linejoin="round"/>
<path d="M53.8334 45.5001C53.8334 43.6591 52.341 42.1667 50.5001 42.1667C48.6591 42.1667 47.1667 43.6591 47.1667 45.5001V48.8334C47.1667 50.6744 48.6591 52.1667 50.5001 52.1667C52.341 52.1667 53.8334 50.6744 53.8334 48.8334V45.5001Z" stroke="white" stroke-width="2" stroke-linecap="round" stroke-linejoin="round"/>
<path d="M27.1667 45.5001V40.5001C27.1667 36.9639 28.5715 33.5725 31.072 31.072C33.5725 28.5715 36.9639 27.1667 40.5001 27.1667C44.0363 27.1667 47.4277 28.5715 49.9282 31.072C52.4287 33.5725 53.8334 36.9639 53.8334 40.5001V45.5001" stroke="white" stroke-width="2" stroke-linecap="round" stroke-linejoin="round"/>
<path d="M50.5 52.1667C50.5 53.4928 49.4464 54.7646 47.5711 55.7023C45.6957 56.64 43.1522 57.1667 40.5 57.1667" stroke="white" stroke-width="2" stroke-linecap="round" stroke-linejoin="round"/>
</g>
<defs>
<clipPath id="clip0_4943_663">
<rect width="40" height="40" fill="white" transform="translate(20.5 20.5)"/>
</clipPath>
</defs>
</svg>
