<svg width="81" height="81" viewBox="0 0 81 81" fill="none" xmlns="http://www.w3.org/2000/svg">
<path opacity="0.3" d="M80.5 40.5C80.5 62.5914 62.5914 80.5 40.5 80.5C18.4086 80.5 0.5 62.5914 0.5 40.5C0.5 18.4086 18.4086 0.5 40.5 0.5C62.5914 0.5 80.5 18.4086 80.5 40.5ZM11.4071 40.5C11.4071 56.5675 24.4325 69.5929 40.5 69.5929C56.5675 69.5929 69.5929 56.5675 69.5929 40.5C69.5929 24.4325 56.5675 11.4071 40.5 11.4071C24.4325 11.4071 11.4071 24.4325 11.4071 40.5Z" fill="#7553C8"/>
<circle cx="40.5" cy="40.5" r="29" fill="#7553C8"/>
<g clip-path="url(#clip0_4943_646)">
<path d="M32.1666 52.1667C34.0075 52.1667 35.4999 50.6743 35.4999 48.8333C35.4999 46.9924 34.0075 45.5 32.1666 45.5C30.3256 45.5 28.8333 46.9924 28.8333 48.8333C28.8333 50.6743 30.3256 52.1667 32.1666 52.1667Z" stroke="#FAFAFA" stroke-width="2" stroke-linecap="round" stroke-linejoin="round"/>
<path d="M48.8333 52.1667C50.6743 52.1667 52.1667 50.6743 52.1667 48.8333C52.1667 46.9924 50.6743 45.5 48.8333 45.5C46.9924 45.5 45.5 46.9924 45.5 48.8333C45.5 50.6743 46.9924 52.1667 48.8333 52.1667Z" stroke="#FAFAFA" stroke-width="2" stroke-linecap="round" stroke-linejoin="round"/>
<path d="M28.8333 48.8335H27.4999C26.3953 48.8335 25.4999 47.9381 25.4999 46.8335V42.1668M23.8333 28.8335H40.1666C41.2712 28.8335 42.1666 29.7289 42.1666 30.8335V48.8335M35.4999 48.8335H45.4999M52.1666 48.8335H53.4999C54.6045 48.8335 55.4999 47.9381 55.4999 46.8335V38.8335M55.4999 38.8335H42.1666M55.4999 38.8335L51.0825 31.4712C50.7211 30.8688 50.0701 30.5002 49.3675 30.5002H42.1666" stroke="#FAFAFA" stroke-width="2" stroke-linecap="round" stroke-linejoin="round"/>
<path d="M28.5 48.5H27.1667C26.0621 48.5 25.1667 47.6046 25.1667 46.5V41.8333M23.5 28.5H39.8333C40.9379 28.5 41.8333 29.3954 41.8333 30.5V48.5M35.5 48.5H45.1667M52.5 48.5H53.1667C54.2712 48.5 55.1667 47.6046 55.1667 46.5V38.5M55.1667 38.5H41.8333M55.1667 38.5L50.7493 31.1377C50.3878 30.5353 49.7368 30.1667 49.0343 30.1667H41.8333" stroke="#FAFAFA" stroke-width="2" stroke-linecap="round" stroke-linejoin="round"/>
<path d="M25.5 32.3181H32.1667" stroke="#FAFAFA" stroke-width="2" stroke-linecap="round" stroke-linejoin="round"/>
<path d="M22.3181 35.9546H28.9848" stroke="#FAFAFA" stroke-width="2" stroke-linecap="round" stroke-linejoin="round"/>
<path d="M25.5 39.5908H32.1667" stroke="#FAFAFA" stroke-width="2" stroke-linecap="round" stroke-linejoin="round"/>
</g>
<defs>
<clipPath id="clip0_4943_646">
<rect width="40" height="40" fill="white" transform="translate(20.5 20.5)"/>
</clipPath>
</defs>
</svg>
