<svg width="167" height="178" viewBox="0 0 167 178" fill="none" xmlns="http://www.w3.org/2000/svg">
<path fill-rule="evenodd" clip-rule="evenodd" d="M107.798 64.1746C108.179 64.546 108.482 64.9872 108.688 65.473C108.894 65.9587 109 66.4795 109 67.0054C109 67.5313 108.894 68.052 108.688 68.5377C108.482 69.0235 108.179 69.4647 107.798 69.8361L83.2598 93.8254C82.8799 94.1977 82.4286 94.4931 81.9317 94.6947C81.4349 94.8962 80.9022 95 80.3643 95C79.8263 95 79.2937 94.8962 78.7968 94.6947C78.2999 94.4931 77.8486 94.1977 77.4687 93.8254L65.1994 81.8307C64.8191 81.459 64.5175 81.0177 64.3117 80.532C64.1059 80.0463 64 79.5257 64 79C64 78.4743 64.1059 77.9537 64.3117 77.468C64.5175 76.9823 64.8191 76.541 65.1994 76.1693C65.5796 75.7975 66.0311 75.5026 66.5279 75.3015C67.0247 75.1003 67.5572 74.9967 68.0949 74.9967C68.6327 74.9967 69.1652 75.1003 69.662 75.3015C70.1588 75.5026 70.6103 75.7975 70.9905 76.1693L80.3643 85.3412L102.007 64.1746C102.387 63.8023 102.839 63.5069 103.335 63.3053C103.832 63.1037 104.365 63 104.903 63C105.441 63 105.974 63.1037 106.47 63.3053C106.967 63.5069 107.419 63.8023 107.798 64.1746Z" fill="#01762C" fill-opacity="0.76"/>
<path fill-rule="evenodd" clip-rule="evenodd" d="M7.5 15.1894C7.5 13.8633 8.00045 12.5916 8.89124 11.6539C9.78204 10.7162 10.9902 10.1894 12.25 10.1894H26.5C27.5595 10.1897 28.5886 10.5629 29.4234 11.2497C30.2583 11.9364 30.8511 12.8972 31.1075 13.9794L34.955 30.1894H145.25C145.947 30.1901 146.636 30.3524 147.267 30.6649C147.898 30.9774 148.456 31.4324 148.902 31.9974C149.347 32.5625 149.669 33.2239 149.844 33.9346C150.019 34.6453 150.043 35.3878 149.915 36.1094L135.665 116.109C135.461 117.255 134.883 118.29 134.031 119.035C133.18 119.78 132.107 120.188 131 120.189H45.5C44.3926 120.188 43.3204 119.78 42.4687 119.035C41.6169 118.29 41.0393 117.255 40.8355 116.109L26.595 36.2594L22.795 20.1894H12.25C10.9902 20.1894 9.78204 19.6626 8.89124 18.7249C8.00045 17.7873 7.5 16.5155 7.5 15.1894ZM36.969 40.1894L49.4425 110.189H127.058L139.531 40.1894H36.969ZM55 120.189C49.9609 120.189 45.1282 122.297 41.565 126.047C38.0018 129.798 36 134.885 36 140.189C36 145.494 38.0018 150.581 41.565 154.332C45.1282 158.082 49.9609 160.189 55 160.189C60.0391 160.189 64.8718 158.082 68.435 154.332C71.9982 150.581 74 145.494 74 140.189C74 134.885 71.9982 129.798 68.435 126.047C64.8718 122.297 60.0391 120.189 55 120.189ZM121.5 120.189C116.461 120.189 111.628 122.297 108.065 126.047C104.502 129.798 102.5 134.885 102.5 140.189C102.5 145.494 104.502 150.581 108.065 154.332C111.628 158.082 116.461 160.189 121.5 160.189C126.539 160.189 131.372 158.082 134.935 154.332C138.498 150.581 140.5 145.494 140.5 140.189C140.5 134.885 138.498 129.798 134.935 126.047C131.372 122.297 126.539 120.189 121.5 120.189ZM55 130.189C52.4804 130.189 50.0641 131.243 48.2825 133.118C46.5009 134.994 45.5 137.537 45.5 140.189C45.5 142.842 46.5009 145.385 48.2825 147.26C50.0641 149.136 52.4804 150.189 55 150.189C57.5196 150.189 59.9359 149.136 61.7175 147.26C63.4991 145.385 64.5 142.842 64.5 140.189C64.5 137.537 63.4991 134.994 61.7175 133.118C59.9359 131.243 57.5196 130.189 55 130.189ZM121.5 130.189C118.98 130.189 116.564 131.243 114.782 133.118C113.001 134.994 112 137.537 112 140.189C112 142.842 113.001 145.385 114.782 147.26C116.564 149.136 118.98 150.189 121.5 150.189C124.02 150.189 126.436 149.136 128.218 147.26C129.999 145.385 131 142.842 131 140.189C131 137.537 129.999 134.994 128.218 133.118C126.436 131.243 124.02 130.189 121.5 130.189Z" fill="#6832E9"/>
<path d="M50 79C50 60.2223 65.2223 45 84 45H90C108.778 45 124 60.2223 124 79V79C124 97.7777 108.778 113 90 113H84C65.2223 113 50 97.7777 50 79V79Z" fill="#058051" fill-opacity="0.22"/>
</svg>
