<svg width="20" height="20" viewBox="0 0 20 20" fill="none" xmlns="http://www.w3.org/2000/svg">
<path d="M8.33329 8.12502C8.79353 8.12502 9.16663 8.49812 9.16663 8.95835V13.9584C9.16663 14.4186 8.79353 14.7917 8.33329 14.7917C7.87306 14.7917 7.49996 14.4186 7.49996 13.9584V8.95835C7.49996 8.49812 7.87306 8.12502 8.33329 8.12502Z" fill="#667085"/>
<path d="M12.5 8.95835C12.5 8.49812 12.1269 8.12502 11.6666 8.12502C11.2064 8.12502 10.8333 8.49812 10.8333 8.95835V13.9584C10.8333 14.4186 11.2064 14.7917 11.6666 14.7917C12.1269 14.7917 12.5 14.4186 12.5 13.9584V8.95835Z" fill="#667085"/>
<path fill-rule="evenodd" clip-rule="evenodd" d="M15 5.00002V4.16669C15 2.78598 13.8807 1.66669 12.5 1.66669H7.49996C6.11925 1.66669 4.99996 2.78598 4.99996 4.16669V5.00002H3.74996C3.28972 5.00002 2.91663 5.37312 2.91663 5.83335C2.91663 6.29359 3.28972 6.66669 3.74996 6.66669H4.16663V15.8334C4.16663 17.2141 5.28591 18.3334 6.66663 18.3334H13.3333C14.714 18.3334 15.8333 17.2141 15.8333 15.8334V6.66669H16.25C16.7102 6.66669 17.0833 6.29359 17.0833 5.83335C17.0833 5.37312 16.7102 5.00002 16.25 5.00002H15ZM12.5 3.33335H7.49996C7.03972 3.33335 6.66663 3.70645 6.66663 4.16669V5.00002H13.3333V4.16669C13.3333 3.70645 12.9602 3.33335 12.5 3.33335ZM14.1666 6.66669H5.83329V15.8334C5.83329 16.2936 6.20639 16.6667 6.66663 16.6667H13.3333C13.7935 16.6667 14.1666 16.2936 14.1666 15.8334V6.66669Z" fill="#667085"/>
</svg>
